<svg version="1.0" xmlns="http://www.w3.org/2000/svg"
 width="668px" style="transform:scale(1,1.001);" height="375.75px" viewBox="0 0 320.000000 180.000000"
 preserveAspectRatio="xMidYMid meet">
<g transform="translate(0.000000,180.000000) scale(0.100000,-0.100000)"
fill="#000000" stroke="none">
<path d="M0 905 l0 -895 61 0 61 0 -2 37 c-3 68 -2 73 25 73 15 0 36 13 56 35 21 23 41
35 58 35 36 0 49 11 55 43 9 52 17 66 32 60 8 -3 23 2 32 11 97 95 320 199
507 237 97 19 204 60 236 89 37 35 39 80 5 120 -13 16 -33 62 -45 102 -12 40
-28 87 -37 105 -9 17 -13 36 -9 43 4 6 8 91 9 188 l2 177 37 75 c63 131 134
194 253 225 92 24 172 20 216 -10 20 -14 40 -25 44 -25 4 0 40 -25 80 -56 80
-61 126 -128 145 -211 6 -26 14 -59 17 -73 8 -33 6 -102 -6 -230 -6 -58 -11
-111 -11 -118 -1 -8 -24 -35 -51 -62 -46 -44 -50 -52 -50 -94 0 -75 14 -93 89
-115 101 -29 153 -42 191 -47 19 -2 75 -9 124 -15 160 -20 251 -68 365 -194
97 -106 132 -136 151 -130 23 7 40 -20 40 -65 0 -26 13 -44 75 -104 55 -52 74
-77 69 -89 -6 -16 10 -17 185 -17 l191 0 0 895 0 895 -1600 0 -1600 0 0 -895z"/>
</g>
</svg>
